<svg width="32" height="32" viewBox="0 0 32 32" fill="none" xmlns="http://www.w3.org/2000/svg">
<path d="M30.0625 10.55V26.7C30.0625 26.9519 29.9637 27.1936 29.7879 27.3717C29.6121 27.5499 29.3736 27.65 29.125 27.65H2.875C2.62636 27.65 2.3879 27.5499 2.21209 27.3717C2.03627 27.1936 1.9375 26.9519 1.9375 26.7V10.55L2.725 11.12L14.3125 19.4705C14.7892 19.8341 15.3676 20.0347 15.9642 20.0432C16.5608 20.0517 17.1446 19.8678 17.6312 19.518L30.0625 10.55Z" fill="#7B7B7B"/>
<path d="M30.0625 7.69998C30.0618 7.8507 30.0257 7.99909 29.9573 8.13289C29.8888 8.26669 29.7899 8.38206 29.6687 8.46948L28.1875 9.54298L16.5437 17.9695C16.385 18.084 16.1949 18.1456 16 18.1456C15.8051 18.1456 15.615 18.084 15.4563 17.9695L3.8125 9.54298L2.33125 8.46948C2.21009 8.38206 2.11119 8.26669 2.04272 8.13289C1.97425 7.99909 1.93819 7.8507 1.9375 7.69998C1.93793 7.59911 1.95701 7.49922 1.99375 7.40548C1.99698 7.36052 2.0133 7.31754 2.04063 7.28198C2.05999 7.23462 2.08519 7.18993 2.11563 7.14898C2.15745 7.09084 2.20453 7.03677 2.25625 6.98748V6.98748L2.425 6.88298C2.49561 6.82625 2.57474 6.78134 2.65937 6.74998C2.73092 6.74008 2.80346 6.74008 2.875 6.74998H29.125C29.1965 6.74008 29.2691 6.74008 29.3406 6.74998C29.4091 6.76688 29.4753 6.79241 29.5375 6.82598L29.7063 6.93048C29.758 6.97977 29.805 7.03384 29.8469 7.09198C29.8773 7.13293 29.9025 7.17762 29.9219 7.22498C29.9492 7.26054 29.9655 7.30352 29.9687 7.34848C30.026 7.45688 30.0581 7.57711 30.0625 7.69998V7.69998Z" fill="#7B7B7B"/>
</svg>
