<svg width="32" height="32" viewBox="0 0 32 32" fill="none" xmlns="http://www.w3.org/2000/svg">
<path d="M11.8054 28C22.3715 28 28.1507 19.1504 28.1507 11.4762C28.1507 11.2248 28.1507 10.9746 28.1339 10.7255C29.2582 9.90338 30.2287 8.88547 31 7.7194C29.9515 8.18906 28.8393 8.49705 27.7005 8.63312C28.8997 7.90733 29.7973 6.7658 30.2261 5.42097C29.0984 6.09743 27.8647 6.57416 26.5782 6.8306C25.7121 5.89954 24.5666 5.28302 23.3189 5.07644C22.0712 4.86986 20.791 5.08473 19.6763 5.68781C18.5616 6.29089 17.6746 7.24855 17.1525 8.4126C16.6305 9.57665 16.5025 10.8822 16.7883 12.1272C14.5044 12.0114 12.27 11.4114 10.2303 10.3661C8.19062 9.32078 6.39118 7.85351 4.9488 6.05955C4.21418 7.33802 3.98918 8.85148 4.31962 10.2918C4.65005 11.7321 5.51107 12.9909 6.72736 13.812C5.81315 13.7846 4.91887 13.5353 4.12 13.0851C4.12 13.1088 4.12 13.1338 4.12 13.1587C4.12036 14.4995 4.57949 15.7989 5.41952 16.8365C6.25954 17.8741 7.42874 18.586 8.7288 18.8515C7.88305 19.0847 6.99569 19.1188 6.13488 18.9512C6.50197 20.1051 7.21665 21.1142 8.17896 21.8373C9.14127 22.5605 10.3031 22.9614 11.5019 22.9842C9.4677 24.6004 6.95479 25.4778 4.36752 25.4751C3.91045 25.4742 3.45383 25.4463 3 25.3913C5.62711 27.0957 8.6839 27.9997 11.8054 27.9955" fill="#7B7B7B"/>
</svg>
