<svg width="32" height="32" viewBox="0 0 32 32" fill="none" xmlns="http://www.w3.org/2000/svg">
<path fill-rule="evenodd" clip-rule="evenodd" d="M16.5 5C10.1462 5 5 10.2764 5 16.7909C5 22.0083 8.29187 26.4152 12.8631 27.9775C13.4381 28.0806 13.6537 27.7269 13.6537 27.4174C13.6537 27.1374 13.6394 26.2088 13.6394 25.2214C10.75 25.7667 10.0025 24.4992 9.7725 23.8359C9.64312 23.4969 9.0825 22.4505 8.59375 22.1705C8.19125 21.9494 7.61625 21.4041 8.57938 21.3893C9.485 21.3746 10.1319 22.2442 10.3475 22.5979C11.3825 24.3813 13.0356 23.8801 13.6969 23.5706C13.7975 22.8042 14.0994 22.2884 14.43 21.9936C11.8712 21.6988 9.1975 20.6819 9.1975 16.1719C9.1975 14.8896 9.64313 13.8284 10.3763 13.0031C10.2613 12.7083 9.85875 11.4997 10.4912 9.87848C10.4912 9.87848 11.4544 9.56897 13.6537 11.087C14.5737 10.8217 15.5513 10.6891 16.5288 10.6891C17.5063 10.6891 18.4838 10.8217 19.4038 11.087C21.6031 9.55423 22.5663 9.87848 22.5663 9.87848C23.1988 11.4997 22.7963 12.7083 22.6813 13.0031C23.4144 13.8284 23.86 14.8749 23.86 16.1719C23.86 20.6966 21.1719 21.6988 18.6131 21.9936C19.03 22.3621 19.3894 23.0695 19.3894 24.1749C19.3894 25.7519 19.375 27.0195 19.375 27.4174C19.375 27.7269 19.5906 28.0954 20.1656 27.9775C24.7081 26.4152 28 21.9936 28 16.7909C28 10.2764 22.8538 5 16.5 5Z" fill="#7B7B7B"/>
</svg>
